<svg class="marks" width="313" height="255" viewBox="0 0 313 255" version="1.1" xmlns="http://www.w3.org/2000/svg" xmlns:xlink="http://www.w3.org/1999/xlink"><g transform="translate(108,5)"><g class="mark-group role-frame root"><g transform="translate(0,0)"><path class="background" d="M0.5,0.5h200v210h-200Z" style="fill: transparent; stroke: #ddd;"></path><g><g class="mark-group role-axis"><g transform="translate(0.5,210.5)"><path class="background" d="M0,0h0v0h0Z" style="pointer-events: none; fill: none;"></path><g><g class="mark-rule role-axis-grid" style="pointer-events: none;"><line transform="translate(8,0)" x2="0" y2="-210" style="fill: none; stroke: #ddd; stroke-width: 1; stroke-dasharray: ; opacity: 1;"></line><line transform="translate(50,0)" x2="0" y2="-210" style="fill: none; stroke: #ddd; stroke-width: 1; stroke-dasharray: ; opacity: 1;"></line><line transform="translate(92,0)" x2="0" y2="-210" style="fill: none; stroke: #ddd; stroke-width: 1; stroke-dasharray: ; opacity: 1;"></line><line transform="translate(133,0)" x2="0" y2="-210" style="fill: none; stroke: #ddd; stroke-width: 1; stroke-dasharray: ; opacity: 1;"></line><line transform="translate(175,0)" x2="0" y2="-210" style="fill: none; stroke: #ddd; stroke-width: 1; stroke-dasharray: ; opacity: 1;"></line></g></g></g></g><g class="mark-symbol role-mark layer_0_marks"><path transform="translate(62.19908333333333,31.5)" d="M2.7386127875258306,0A2.7386127875258306,2.7386127875258306,0,1,1,-2.7386127875258306,0A2.7386127875258306,2.7386127875258306,0,1,1,2.7386127875258306,0" style="fill: black; stroke-width: 2;"></path><path transform="translate(77.84721527777782,10.5)" d="M2.7386127875258306,0A2.7386127875258306,2.7386127875258306,0,1,1,-2.7386127875258306,0A2.7386127875258306,2.7386127875258306,0,1,1,2.7386127875258306,0" style="fill: black; stroke-width: 2;"></path><path transform="translate(53.1481458333333,136.5)" d="M2.7386127875258306,0A2.7386127875258306,2.7386127875258306,0,1,1,-2.7386127875258306,0A2.7386127875258306,2.7386127875258306,0,1,1,2.7386127875258306,0" style="fill: black; stroke-width: 2;"></path><path transform="translate(75.50924305555556,178.5)" d="M2.7386127875258306,0A2.7386127875258306,2.7386127875258306,0,1,1,-2.7386127875258306,0A2.7386127875258306,2.7386127875258306,0,1,1,2.7386127875258306,0" style="fill: black; stroke-width: 2;"></path><path transform="translate(128.3332777777778,157.5)" d="M2.7386127875258306,0A2.7386127875258306,2.7386127875258306,0,1,1,-2.7386127875258306,0A2.7386127875258306,2.7386127875258306,0,1,1,2.7386127875258306,0" style="fill: black; stroke-width: 2;"></path><path transform="translate(98.72686805555558,52.5)" d="M2.7386127875258306,0A2.7386127875258306,2.7386127875258306,0,1,1,-2.7386127875258306,0A2.7386127875258306,2.7386127875258306,0,1,1,2.7386127875258306,0" style="fill: black; stroke-width: 2;"></path><path transform="translate(94.81484027777783,73.5)" d="M2.7386127875258306,0A2.7386127875258306,2.7386127875258306,0,1,1,-2.7386127875258306,0A2.7386127875258306,2.7386127875258306,0,1,1,2.7386127875258306,0" style="fill: black; stroke-width: 2;"></path><path transform="translate(84.83796527777785,115.5)" d="M2.7386127875258306,0A2.7386127875258306,2.7386127875258306,0,1,1,-2.7386127875258306,0A2.7386127875258306,2.7386127875258306,0,1,1,2.7386127875258306,0" style="fill: black; stroke-width: 2;"></path><path transform="translate(64.6759236111111,94.5)" d="M2.7386127875258306,0A2.7386127875258306,2.7386127875258306,0,1,1,-2.7386127875258306,0A2.7386127875258306,2.7386127875258306,0,1,1,2.7386127875258306,0" style="fill: black; stroke-width: 2;"></path><path transform="translate(128.28704861111112,199.5)" d="M2.7386127875258306,0A2.7386127875258306,2.7386127875258306,0,1,1,-2.7386127875258306,0A2.7386127875258306,2.7386127875258306,0,1,1,2.7386127875258306,0" style="fill: black; stroke-width: 2;"></path></g><g class="mark-rule role-mark layer_1_marks"><line transform="translate(31.523747395833368,31.5)" x2="67.85355659722215" y2="0" style="fill: none; stroke: black;"></line><line transform="translate(30.644671006944463,10.5)" x2="91.40276684027779" y2="0" style="fill: none; stroke: black;"></line><line transform="translate(13.48379375000001,136.5)" x2="82.44618802083339" y2="0" style="fill: none; stroke: black;"></line><line transform="translate(40.44385416666667,178.5)" x2="71.27835625000003" y2="0" style="fill: none; stroke: black;"></line><line transform="translate(80.17765000000003,157.5)" x2="104.4125302083333" y2="0" style="fill: none; stroke: black;"></line><line transform="translate(52.53646805555553,52.5)" x2="96.72858993055561" y2="0" style="fill: none; stroke: black;"></line><line transform="translate(38.275468229166634,73.5)" x2="117.6314230902778" y2="0" style="fill: none; stroke: black;"></line><line transform="translate(52.61459236111108,115.5)" x2="64.78181736111115" y2="0" style="fill: none; stroke: black;"></line><line transform="translate(17.291085937500007,94.5)" x2="93.12558090277776" y2="0" style="fill: none; stroke: black;"></line><line transform="translate(77.05093506944448,199.5)" x2="109.74652795138883" y2="0" style="fill: none; stroke: black;"></line></g><g class="mark-group role-axis"><g transform="translate(0.5,210.5)"><path class="background" d="M0,0h0v0h0Z" style="pointer-events: none; fill: none;"></path><g><g class="mark-rule role-axis-tick" style="pointer-events: none;"><line transform="translate(8,0)" x2="0" y2="5" style="fill: none; stroke: #888; stroke-width: 1; opacity: 1;"></line><line transform="translate(50,0)" x2="0" y2="5" style="fill: none; stroke: #888; stroke-width: 1; opacity: 1;"></line><line transform="translate(92,0)" x2="0" y2="5" style="fill: none; stroke: #888; stroke-width: 1; opacity: 1;"></line><line transform="translate(133,0)" x2="0" y2="5" style="fill: none; stroke: #888; stroke-width: 1; opacity: 1;"></line><line transform="translate(175,0)" x2="0" y2="5" style="fill: none; stroke: #888; stroke-width: 1; opacity: 1;"></line></g><g class="mark-text role-axis-label" style="pointer-events: none;"><text text-anchor="middle" transform="translate(8.333333333333332,15)" style="font: 10px sans-serif; fill: #000; opacity: 1;">25</text><text text-anchor="middle" transform="translate(50,15)" style="font: 10px sans-serif; fill: #000; opacity: 1;">30</text><text text-anchor="middle" transform="translate(91.66666666666666,15)" style="font: 10px sans-serif; fill: #000; opacity: 1;">35</text><text text-anchor="middle" transform="translate(133.33333333333331,15)" style="font: 10px sans-serif; fill: #000; opacity: 1;">40</text><text text-anchor="middle" transform="translate(175,15)" style="font: 10px sans-serif; fill: #000; opacity: 1;">45</text></g><g class="mark-rule role-axis-domain" style="pointer-events: none;"><line transform="translate(0,0)" x2="200" y2="0" style="fill: none; stroke: #888; stroke-width: 1; opacity: 1;"></line></g><g class="mark-text role-axis-title" style="pointer-events: none;"><text text-anchor="middle" transform="translate(100,31)" style="font: bold 11px sans-serif; fill: #000; opacity: 1;">Barley Yield</text></g></g></g></g><g class="mark-group role-axis"><g transform="translate(0.5,0.5)"><path class="background" d="M0,0h0v0h0Z" style="pointer-events: none; fill: none;"></path><g><g class="mark-rule role-axis-tick" style="pointer-events: none;"><line transform="translate(0,11)" x2="-5" y2="0" style="fill: none; stroke: #888; stroke-width: 1; opacity: 1;"></line><line transform="translate(0,32)" x2="-5" y2="0" style="fill: none; stroke: #888; stroke-width: 1; opacity: 1;"></line><line transform="translate(0,53)" x2="-5" y2="0" style="fill: none; stroke: #888; stroke-width: 1; opacity: 1;"></line><line transform="translate(0,74)" x2="-5" y2="0" style="fill: none; stroke: #888; stroke-width: 1; opacity: 1;"></line><line transform="translate(0,95)" x2="-5" y2="0" style="fill: none; stroke: #888; stroke-width: 1; opacity: 1;"></line><line transform="translate(0,116)" x2="-5" y2="0" style="fill: none; stroke: #888; stroke-width: 1; opacity: 1;"></line><line transform="translate(0,137)" x2="-5" y2="0" style="fill: none; stroke: #888; stroke-width: 1; opacity: 1;"></line><line transform="translate(0,158)" x2="-5" y2="0" style="fill: none; stroke: #888; stroke-width: 1; opacity: 1;"></line><line transform="translate(0,179)" x2="-5" y2="0" style="fill: none; stroke: #888; stroke-width: 1; opacity: 1;"></line><line transform="translate(0,200)" x2="-5" y2="0" style="fill: none; stroke: #888; stroke-width: 1; opacity: 1;"></line></g><g class="mark-text role-axis-label" style="pointer-events: none;"><text text-anchor="end" transform="translate(-7,13.5)" style="font: 10px sans-serif; fill: #000; opacity: 1;">Glabron</text><text text-anchor="end" transform="translate(-7,34.5)" style="font: 10px sans-serif; fill: #000; opacity: 1;">Manchuria</text><text text-anchor="end" transform="translate(-7,55.5)" style="font: 10px sans-serif; fill: #000; opacity: 1;">No. 457</text><text text-anchor="end" transform="translate(-7,76.5)" style="font: 10px sans-serif; fill: #000; opacity: 1;">No. 462</text><text text-anchor="end" transform="translate(-7,97.5)" style="font: 10px sans-serif; fill: #000; opacity: 1;">No. 475</text><text text-anchor="end" transform="translate(-7,118.5)" style="font: 10px sans-serif; fill: #000; opacity: 1;">Peatland</text><text text-anchor="end" transform="translate(-7,139.5)" style="font: 10px sans-serif; fill: #000; opacity: 1;">Svansota</text><text text-anchor="end" transform="translate(-7,160.5)" style="font: 10px sans-serif; fill: #000; opacity: 1;">Trebi</text><text text-anchor="end" transform="translate(-7,181.5)" style="font: 10px sans-serif; fill: #000; opacity: 1;">Velvet</text><text text-anchor="end" transform="translate(-7,202.5)" style="font: 10px sans-serif; fill: #000; opacity: 1;">Wisconsin No. 38</text></g><g class="mark-rule role-axis-domain" style="pointer-events: none;"><line transform="translate(0,0)" x2="0" y2="210" style="fill: none; stroke: #888; stroke-width: 1; opacity: 1;"></line></g><g class="mark-text role-axis-title" style="pointer-events: none;"><text text-anchor="middle" transform="translate(-89.8076171875,105) rotate(-90) translate(0,-2)" style="font: bold 11px sans-serif; fill: #000; opacity: 1;">variety</text></g></g></g></g></g></g></g></g></svg>